<svg xmlns="http://www.w3.org/2000/svg" viewBox="0 0 32 32">
  <g class="mark" fill="none" stroke-width="3" stroke-linecap="butt" stroke-linejoin="miter">
    <path d="M4.5 27.5V4.5H9A3.5 3.5 0 0 1 12.5 8V12A3.5 3.5 0 0 1 9 15.5H4.5" />
    <path d="M9 15.5A3.5 3.5 0 0 1 12.5 19V24A3.5 3.5 0 0 1 9 27.5H4.5" />
    <path d="M27.5 27.5V4.5H23A3.5 3.5 0 0 0 19.5 8V12A3.5 3.5 0 0 0 23 15.5H27.5" />
    <path d="M23 15.5A3.5 3.5 0 0 0 19.5 19V24A3.5 3.5 0 0 0 23 27.5H27.5" />
  </g>
  <rect class="dot" x="14.5" y="14.5" width="3" height="3" />
  <style>
    .mark { stroke: #141312; }
    .dot { fill: #26708c; }
    @media (prefers-color-scheme: dark) {
      .mark { stroke: #edeae4; }
      .dot { fill: #5fb3d1; }
    }
  </style>
</svg>
